# Blender v2.80 (sub 75) OBJ File: ''
# www.blender.org
mtllib HexTile.mtl
o Cube
v -0.707107 0.438880 -1.414214
v -1.707107 0.438880 0.000000
v -0.707107 0.438880 1.414214
v 1.707107 0.438880 0.000000
v 0.707107 0.438880 1.414213
v 0.707107 0.438880 -1.414214
v -0.707107 0.251785 -1.414214
v -1.707107 0.251785 0.000000
v -0.707107 0.251785 1.414214
v 1.707107 0.251785 0.000000
v 0.707107 0.251785 1.414213
v 0.707107 0.251785 -1.414213
vt 0.000000 0.000000
vt 0.000000 0.000000
vt 0.000000 0.000000
vt 0.000000 0.000000
vt 0.000000 0.000000
vt 0.000000 0.000000
vt 0.000000 0.000000
vt 0.000000 0.000000
vt 0.000000 0.000000
vt 0.000000 0.000000
vt 0.000000 0.000000
vt 0.000000 0.000000
vn 0.0000 1.0000 -0.0000
vn -0.0000 -1.0000 0.0000
vn 0.0000 -0.0000 -1.0000
vn 0.8165 0.0000 -0.5774
vn -0.8165 0.0000 0.5774
vn 0.0000 0.0000 1.0000
vn 0.8165 0.0000 0.5774
vn -0.8165 0.0000 -0.5774
usemtl Material
s off
f 2/1/1 3/2/1 5/3/1 4/4/1 6/5/1 1/6/1
f 8/7/2 7/8/2 12/9/2 10/10/2 11/11/2 9/12/2
f 1/6/3 6/5/3 12/9/3 7/8/3
f 6/5/4 4/4/4 10/10/4 12/9/4
f 3/2/5 2/1/5 8/7/5 9/12/5
f 5/3/6 3/2/6 9/12/6 11/11/6
f 4/4/7 5/3/7 11/11/7 10/10/7
f 2/1/8 1/6/8 7/8/8 8/7/8
l 2 4
l 8 10
